<svg width="489" height="563" viewBox="0 0 489 563" fill="none" xmlns="http://www.w3.org/2000/svg">
<path fill-rule="evenodd" clip-rule="evenodd" d="M942.05 -181.025C954.979 -66.9067 862.521 25.4494 823.184 133.342C787.115 232.274 794.34 348.295 721.385 424.22C642.703 506.105 526.632 584.379 416.533 556.547C304.999 528.352 284.342 378.004 205.839 293.894C150.845 234.972 62.67 212.105 27.4051 139.629C-10.1229 62.5019 5.15147 -25.026 8.96897 -110.712C14.1988 -228.098 -33.3042 -372.762 53.7485 -451.661C139.683 -529.546 277.339 -451.582 393.087 -458.85C516.102 -466.575 641.956 -551.165 751.94 -495.503C863.965 -438.808 927.915 -305.791 942.05 -181.025Z" fill="#9D5F26"/>
</svg>
