<svg width="185" height="185" viewBox="0 0 185 185" fill="none" xmlns="http://www.w3.org/2000/svg">
<g id="Group 34">
<circle id="Ellipse 4" cx="92.1202" cy="92.12" r="73" transform="rotate(18.1651 92.1202 92.12)" fill="#81B47E"/>
<path id="Vector" d="M134.254 76.1399L69.1554 56.6146C67.7166 56.1831 66.1482 56.2949 64.7952 56.9256C63.4422 57.5562 62.4154 58.654 61.9408 59.9774L47.6234 99.8963C47.1487 101.22 47.265 102.66 47.9468 103.901C48.6285 105.142 49.8198 106.082 51.2586 106.513L116.357 126.039C117.796 126.47 119.365 126.358 120.718 125.728C122.071 125.097 123.097 123.999 123.572 122.676L137.889 82.7569C138.364 81.4335 138.248 79.9929 137.566 78.752C136.884 77.5111 135.693 76.5715 134.254 76.1399ZM126.497 79.34L93.8481 88.2828L73.3331 63.3943L126.497 79.34ZM53.0483 101.523L66.5514 63.8749L90.4766 92.9087C90.8267 93.3346 91.3104 93.6517 91.8631 93.8174C92.4157 93.9832 93.0108 93.9897 93.5688 93.8362L131.65 83.4002L118.147 121.049L53.0483 101.523Z" fill="#39413C"/>
</g>
</svg>
