<svg width="24" height="24" viewBox="0 0 24 24" fill="none" xmlns="http://www.w3.org/2000/svg">
<g id="&#240;&#159;&#166;&#134; icon &#34;dribble&#34;">
<path id="Vector" d="M12 0C5.3724 0 0 5.3724 0 12C0 18.6276 5.3724 24 12 24C18.6276 24 24 18.6276 24 12C24 5.3724 18.6276 0 12 0ZM12 1.7388C14.6142 1.7388 17.0004 2.7168 18.8124 4.326C17.481 6.0822 15.4584 7.2516 13.4316 8.043C12.327 6.0222 10.9668 3.8916 9.58261 2.025C10.3572 1.8378 11.1666 1.7388 12 1.7388ZM7.6344 2.7114C8.9718 4.7124 10.2678 6.5682 11.4522 8.6688C8.4576 9.4446 5.07481 9.9102 1.94941 9.918C2.60821 6.7212 4.7556 4.0668 7.6344 2.7114ZM19.9506 5.5128C21.3822 7.2642 22.2444 9.498 22.2612 11.9322C19.8876 11.4648 17.5266 11.3418 15.1236 11.5842C14.853 10.9104 14.526 10.2708 14.2122 9.5802C16.284 8.7444 18.4992 7.314 19.9506 5.5128ZM12.2856 10.2564C12.5424 10.803 12.84 11.382 13.119 11.9742C9.77701 13.4478 6.22261 15.417 4.37701 18.8694C2.73721 17.0508 1.73881 14.6412 1.73881 12C1.73881 11.8998 1.7406 11.7996 1.7436 11.7C5.3226 11.6826 8.83561 11.235 12.2856 10.2564ZM22.2264 12.8544C22.2234 12.894 22.2198 12.9342 22.2156 12.9738C22.2198 12.9342 22.2234 12.8946 22.2264 12.8544ZM17.7078 13.0542C19.1994 13.0494 20.7408 13.2576 22.1334 13.6242C21.678 16.4898 20.0352 18.9612 17.7252 20.5164C17.1744 18.0114 16.6494 15.6144 15.7212 13.1976C16.3614 13.1022 17.0298 13.056 17.7078 13.0542ZM22.1868 13.2402C22.1796 13.299 22.173 13.3566 22.1646 13.4148C22.173 13.356 22.1802 13.2984 22.1868 13.2402ZM13.8222 13.6668C14.7684 16.11 15.5106 18.816 16.0086 21.4494C14.7768 21.9726 13.4226 22.2618 12 22.2618C9.627 22.2618 7.44181 21.4554 5.70361 20.1024C7.56181 17.0874 10.44 14.8062 13.8222 13.6668Z" fill="#E5E2D7"/>
</g>
</svg>
