<svg width="36" height="36" viewBox="0 0 36 36" fill="none" xmlns="http://www.w3.org/2000/svg">
<g id="&#240;&#159;&#166;&#134; icon &#34;dribble&#34;">
<path id="Vector" d="M18 0C8.0586 0 0 8.0586 0 18C0 27.9414 8.0586 36 18 36C27.9414 36 36 27.9414 36 18C36 8.0586 27.9414 0 18 0ZM18 2.6082C21.9213 2.6082 25.5006 4.0752 28.2186 6.489C26.2215 9.1233 23.1876 10.8774 20.1474 12.0645C18.4905 9.0333 16.4502 5.8374 14.3739 3.0375C15.5358 2.7567 16.7499 2.6082 18 2.6082ZM11.4516 4.0671C13.4577 7.0686 15.4017 9.8523 17.1783 13.0032C12.6864 14.1669 7.61222 14.8653 2.92412 14.877C3.91232 10.0818 7.1334 6.1002 11.4516 4.0671ZM29.9259 8.2692C32.0733 10.8963 33.3666 14.247 33.3918 17.8983C29.8314 17.1972 26.2899 17.0127 22.6854 17.3763C22.2795 16.3656 21.789 15.4062 21.3183 14.3703C24.426 13.1166 27.7488 10.971 29.9259 8.2692ZM18.4284 15.3846C18.8136 16.2045 19.26 17.073 19.6785 17.9613C14.6655 20.1717 9.33391 23.1255 6.56551 28.3041C4.10581 25.5762 2.60821 21.9618 2.60821 18C2.60821 17.8497 2.61091 17.6994 2.61541 17.55C7.98391 17.5239 13.2534 16.8525 18.4284 15.3846ZM33.3396 19.2816C33.3351 19.341 33.3297 19.4013 33.3234 19.4607C33.3297 19.4013 33.3351 19.3419 33.3396 19.2816ZM26.5617 19.5813C28.7991 19.5741 31.1112 19.8864 33.2001 20.4363C32.517 24.7347 30.0528 28.4418 26.5878 30.7746C25.7616 27.0171 24.9741 23.4216 23.5818 19.7964C24.5421 19.6533 25.5447 19.584 26.5617 19.5813ZM33.2802 19.8603C33.2694 19.9485 33.2595 20.0349 33.2469 20.1222C33.2595 20.034 33.2703 19.9476 33.2802 19.8603ZM20.7333 20.5002C22.1526 24.165 23.2659 28.224 24.0129 32.1741C22.1652 32.9589 20.1339 33.3927 18 33.3927C14.4405 33.3927 11.1627 32.1831 8.55541 30.1536C11.3427 25.6311 15.66 22.2093 20.7333 20.5002Z" fill="#191C19"/>
</g>
</svg>
