<svg width="920" height="433" viewBox="0 0 920 433" fill="none" xmlns="http://www.w3.org/2000/svg">
<path fill-rule="evenodd" clip-rule="evenodd" d="M269.521 13.0935C374.375 44.5812 388.97 196.972 484.308 250.781C602.688 317.594 787.193 243.133 869.179 351.538C948.33 456.193 929.567 630.288 850.567 735.057C772.935 838.012 591.501 770.375 491.743 852.09C380.145 943.503 405.764 1163.55 269.521 1211.01C139.635 1256.25 -17.0681 1166.46 -103.341 1059.37C-184.531 958.582 -134.808 812.015 -154.889 684.178C-170.685 583.621 -223.404 491.775 -208.315 391.109C-191.235 277.16 -155.573 157.265 -65.1924 85.7653C26.5841 13.1611 157.433 -20.5667 269.521 13.0935Z" fill="#8CC589" fill-opacity="0.5"/>
</svg>
