<svg width="40" height="40" viewBox="0 0 40 40" fill="none" xmlns="http://www.w3.org/2000/svg">
<g id="&#240;&#159;&#166;&#134; emoji &#34;instagram emoji&#34;">
<path id="Vector" d="M28.3006 2H11.6994C6.34261 2 2 6.34261 2 11.6994V28.3006C2 33.6574 6.34261 38 11.6994 38H28.3006C33.6574 38 38 33.6574 38 28.3006V11.6994C38.0001 6.34261 33.6575 2 28.3006 2Z" stroke="#191C19" stroke-width="3" stroke-miterlimit="10"/>
<path id="Vector_2" d="M20.0002 28.6897C24.7994 28.6897 28.6899 24.7992 28.6899 20C28.6899 15.2009 24.7994 11.3104 20.0002 11.3104C15.2011 11.3104 11.3105 15.2009 11.3105 20C11.3105 24.7992 15.2011 28.6897 20.0002 28.6897Z" stroke="#191C19" stroke-width="3" stroke-miterlimit="10"/>
<path id="Vector_3" d="M30.5515 11.3104C31.5799 11.3104 32.4136 10.4767 32.4136 9.44827C32.4136 8.41987 31.5799 7.58618 30.5515 7.58618C29.5231 7.58618 28.6895 8.41987 28.6895 9.44827C28.6895 10.4767 29.5231 11.3104 30.5515 11.3104Z" fill="#191C19"/>
</g>
</svg>
