<svg width="28" height="28" viewBox="0 0 28 28" fill="none" xmlns="http://www.w3.org/2000/svg">
<g id="&#240;&#159;&#166;&#134; emoji &#34;instagram emoji&#34;">
<path id="Vector" d="M19.5338 2H8.46629C4.89507 2 2 4.89507 2 8.46629V19.5337C2 23.1049 4.89507 26 8.46629 26H19.5337C23.1049 26 26 23.1049 26 19.5337V8.46629C26.0001 4.89507 23.105 2 19.5338 2Z" stroke="#E5E2D7" stroke-width="3" stroke-miterlimit="10"/>
<path id="Vector_2" d="M14.0002 19.7932C17.1996 19.7932 19.7933 17.1995 19.7933 14C19.7933 10.8006 17.1996 8.20691 14.0002 8.20691C10.8007 8.20691 8.20703 10.8006 8.20703 14C8.20703 17.1995 10.8007 19.7932 14.0002 19.7932Z" stroke="#E5E2D7" stroke-width="3" stroke-miterlimit="10"/>
<path id="Vector_3" d="M21.0344 8.2069C21.72 8.2069 22.2758 7.65111 22.2758 6.96551C22.2758 6.27991 21.72 5.72412 21.0344 5.72412C20.3488 5.72412 19.793 6.27991 19.793 6.96551C19.793 7.65111 20.3488 8.2069 21.0344 8.2069Z" fill="#E5E2D7"/>
</g>
</svg>
