<svg width="24" height="24" viewBox="0 0 24 24" fill="none" xmlns="http://www.w3.org/2000/svg">
<g id="&#240;&#159;&#166;&#134; icon &#34;linkedin square&#34;">
<path id="Vector" d="M18 13.356V17.7924H15.4284V13.6524C15.4284 12.6132 15.0564 11.904 14.1252 11.904C13.4148 11.904 12.9912 12.3816 12.8052 12.8448C12.738 13.0104 12.72 13.2408 12.72 13.4712V17.7924H10.1472C10.1472 17.7924 10.182 10.782 10.1472 10.056H12.72V11.1516L12.7032 11.1768H12.72V11.1516C13.062 10.6236 13.6716 9.87359 15.0384 9.87359C16.7304 9.87359 18 10.98 18 13.356ZM7.4556 6.3252C6.576 6.3252 6 6.9036 6 7.662C6 8.406 6.5592 9 7.422 9H7.4388C8.3364 9 8.8944 8.4048 8.8944 7.662C8.8776 6.9036 8.3364 6.3252 7.4556 6.3252ZM6.1524 17.7924H8.7252V10.056H6.1524V17.7924Z" fill="#E5E2D7"/>
<path id="Vector_2" d="M4.8 2.4C4.16348 2.4 3.55303 2.65286 3.10294 3.10294C2.65286 3.55303 2.4 4.16348 2.4 4.8V19.2C2.4 19.8365 2.65286 20.447 3.10294 20.8971C3.55303 21.3471 4.16348 21.6 4.8 21.6H19.2C19.8365 21.6 20.447 21.3471 20.8971 20.8971C21.3471 20.447 21.6 19.8365 21.6 19.2V4.8C21.6 4.16348 21.3471 3.55303 20.8971 3.10294C20.447 2.65286 19.8365 2.4 19.2 2.4H4.8ZM4.8 0H19.2C20.473 0 21.6939 0.505713 22.5941 1.40589C23.4943 2.30606 24 3.52696 24 4.8V19.2C24 20.473 23.4943 21.6939 22.5941 22.5941C21.6939 23.4943 20.473 24 19.2 24H4.8C3.52696 24 2.30606 23.4943 1.40589 22.5941C0.505713 21.6939 0 20.473 0 19.2V4.8C0 3.52696 0.505713 2.30606 1.40589 1.40589C2.30606 0.505713 3.52696 0 4.8 0Z" fill="#E5E2D7"/>
</g>
</svg>
