<svg width="36" height="36" viewBox="0 0 36 36" fill="none" xmlns="http://www.w3.org/2000/svg">
<g id="&#240;&#159;&#166;&#134; icon &#34;linkedin square&#34;">
<path id="Vector" d="M27 20.034V26.6886H23.1426V20.4786C23.1426 18.9198 22.5846 17.856 21.1878 17.856C20.1222 17.856 19.4868 18.5724 19.2078 19.2672C19.107 19.5156 19.08 19.8612 19.08 20.2068V26.6886H15.2208C15.2208 26.6886 15.273 16.173 15.2208 15.084H19.08V16.7274L19.0548 16.7652H19.08V16.7274C19.593 15.9354 20.5074 14.8104 22.5576 14.8104C25.0956 14.8104 27 16.47 27 20.034ZM11.1834 9.48779C9.864 9.48779 9 10.3554 9 11.493C9 12.609 9.8388 13.5 11.133 13.5H11.1582C12.5046 13.5 13.3416 12.6072 13.3416 11.493C13.3164 10.3554 12.5046 9.48779 11.1834 9.48779ZM9.2286 26.6886H13.0878V15.084H9.2286V26.6886Z" fill="#191C19"/>
<path id="Vector_2" d="M7.2 3.6C6.24522 3.6 5.32955 3.97928 4.65442 4.65442C3.97928 5.32955 3.6 6.24522 3.6 7.2V28.8C3.6 29.7548 3.97928 30.6705 4.65442 31.3456C5.32955 32.0207 6.24522 32.4 7.2 32.4H28.8C29.7548 32.4 30.6705 32.0207 31.3456 31.3456C32.0207 30.6705 32.4 29.7548 32.4 28.8V7.2C32.4 6.24522 32.0207 5.32955 31.3456 4.65442C30.6705 3.97928 29.7548 3.6 28.8 3.6H7.2ZM7.2 0H28.8C30.7096 0 32.5409 0.758569 33.8912 2.10883C35.2414 3.45909 36 5.29044 36 7.2V28.8C36 30.7096 35.2414 32.5409 33.8912 33.8912C32.5409 35.2414 30.7096 36 28.8 36H7.2C5.29044 36 3.45909 35.2414 2.10883 33.8912C0.758569 32.5409 0 30.7096 0 28.8V7.2C0 5.29044 0.758569 3.45909 2.10883 2.10883C3.45909 0.758569 5.29044 0 7.2 0Z" fill="#191C19"/>
</g>
</svg>
